Coordinates
version=1
nRows=29
nColumns=22
inDegrees=yes

Units are S.I. units (second, meters, Newtons, ...)
If the header above contains a line with 'inDegrees', this indicates whether rotational values are in degrees (yes) or radians (no).

endheader
time	pelvis_tilt	pelvis_list	pelvis_rotation	pelvis_tx	pelvis_ty	pelvis_tz	hip_flexion_r	hip_adduction_r	hip_rotation_r	knee_angle_r	ankle_angle_r	subtalar_angle_r	hip_flexion_l	hip_adduction_l	hip_rotation_l	knee_angle_l	ankle_angle_l	subtalar_angle_l	lumbar_extension	lumbar_bending	lumbar_rotation
      1.84000000	      5.70605178	     -2.92287120	      6.90458991	     -1.35056789	      0.95472515	     -0.59251779	     -6.74609439	      5.30668865	    -11.76693056	     -7.80755600	      9.63927874	     -1.65475219	     -2.73774767	     -3.55104362	    -12.83711602	    -16.07047632	     21.00422374	     -8.09507216	    -11.73926482	      4.30669276	     -9.73737347
      1.85000000	      5.70667119	     -2.93225883	      6.90486295	     -1.35064129	      0.95472139	     -0.59246390	     -6.73353859	      5.31753444	    -11.75082486	     -7.82383013	      9.62914797	     -1.65580684	     -2.71255403	     -3.56770943	    -12.83310886	    -16.11103751	     21.01761678	     -8.10455080	    -11.76283578	      4.32454499	     -9.75789341
      1.86000000	      5.70111639	     -2.93373019	      6.89810128	     -1.35066836	      0.95472149	     -0.59239582	     -6.72819442	      5.32014522	    -11.75506155	     -7.81644858	      9.62870398	     -1.65549169	     -2.70526427	     -3.57123536	    -12.83371742	    -16.11027594	     21.01985718	     -8.10598790	    -11.77348033	      4.32523618	     -9.75933789
      1.87000000	      5.69046121	     -2.96242686	      6.90704211	     -1.35071904	      0.95469196	     -0.59234624	     -6.70963776	      5.35215171	    -11.79507893	     -7.81306071	      9.60451535	     -1.64356413	     -2.65294583	     -3.61512728	    -12.85069513	    -16.17853111	     21.05952345	     -8.14030871	    -11.77553354	      4.36067736	     -9.75653670
      1.88000000	      5.68557801	     -2.96298586	      6.89663736	     -1.35073826	      0.95469377	     -0.59228757	     -6.70339945	      5.35204222	    -11.79822607	     -7.80804156	      9.60417887	     -1.64260122	     -2.64848279	     -3.61574941	    -12.85032057	    -16.17676354	     21.06152267	     -8.14149062	    -11.78418034	      4.36294715	     -9.76091366
      1.89000000	      5.68136302	     -2.96428375	      6.88556729	     -1.35075195	      0.95469554	     -0.59223186	     -6.69724689	      5.35245224	    -11.80380744	     -7.80382195	      9.60356732	     -1.64123783	     -2.64422457	     -3.61688095	    -12.85045693	    -16.17664027	     21.06374201	     -8.14332423	    -11.79211629	      4.36621714	     -9.76383055
      1.90000000	      5.67770679	     -2.96644339	      6.87403162	     -1.35076103	      0.95469694	     -0.59217847	     -6.69083315	      5.35300817	    -11.81135731	     -7.79995069	      9.60303833	     -1.63976530	     -2.64056742	     -3.61928956	    -12.85126947	    -16.17721101	     21.06602347	     -8.14557212	    -11.79950711	      4.36999838	     -9.76522475
      1.91000000	      5.66923342	     -2.98938190	      6.86462149	     -1.35076180	      0.95467766	     -0.59212244	     -6.66120158	      5.37243809	    -11.86907366	     -7.82694895	      9.59636245	     -1.62243494	     -2.62057786	     -3.64927744	    -12.88268540	    -16.19573685	     21.09442638	     -8.17718877	    -11.79615768	      4.39619343	     -9.74524156
      1.92000000	      5.66635042	     -2.98956559	      6.85395551	     -1.35075492	      0.95467729	     -0.59207833	     -6.65753657	      5.37182875	    -11.87069349	     -7.82312072	      9.59705441	     -1.62165806	     -2.61797026	     -3.64880692	    -12.88149751	    -16.19760500	     21.09571589	     -8.17827368	    -11.80082979	      4.39866502	     -9.74792577
      1.93000000	      5.66327289	     -2.99051429	      6.84538828	     -1.35074135	      0.95467600	     -0.59202973	     -6.65398901	      5.37364260	    -11.87176294	     -7.82075520	      9.59802854	     -1.62102389	     -2.61578461	     -3.65005112	    -12.88206801	    -16.19773625	     21.09713988	     -8.17955420	    -11.80457726	      4.39947717	     -9.74899174
      1.94000000	      5.65954172	     -2.99255152	      6.83560859	     -1.35072020	      0.95467239	     -0.59197601	     -6.65008791	      5.37696155	    -11.87161033	     -7.81939652	      9.59938695	     -1.62035825	     -2.61429423	     -3.65287408	    -12.88514999	    -16.19621344	     21.09931772	     -8.18125289	    -11.80684448	      4.40014507	     -9.74879570
      1.95000000	      5.64072319	     -3.00873408	      6.79593447	     -1.35068676	      0.95464125	     -0.59187508	     -6.62097772	      5.39089118	    -11.81482034	     -7.83424168	      9.60854623	     -1.61175293	     -2.59912340	     -3.67230027	    -12.95337172	    -16.19775601	     21.13321973	     -8.20453111	    -11.78958203	      4.41110480	     -9.69827009
      1.96000000	      5.63723493	     -3.00920135	      6.78776398	     -1.35065349	      0.95463786	     -0.59182147	     -6.61968761	      5.39363970	    -11.81412262	     -7.83245746	      9.60839558	     -1.61153157	     -2.59922681	     -3.67422743	    -12.95523419	    -16.19586952	     21.13378816	     -8.20500481	    -11.79074731	      4.40916529	     -9.70095592
      1.97000000	      5.63183394	     -3.01027713	      6.77755273	     -1.35062910	      0.95463343	     -0.59175869	     -6.61577459	      5.39728938	    -11.80977034	     -7.82983947	      9.60780275	     -1.61118986	     -2.59917124	     -3.67681264	    -12.96199863	    -16.18909522	     21.13557725	     -8.20574608	    -11.79312941	      4.40639041	     -9.70285358
      1.98000000	      5.61385242	     -3.01363892	      6.72291609	     -1.35058097	      0.95461304	     -0.59163741	     -6.59777041	      5.39827777	    -11.71336693	     -7.82996235	      9.59609100	     -1.60741717	     -2.60167837	     -3.67887096	    -13.04135641	    -16.16687870	     21.15114304	     -8.21273102	    -11.77780936	      4.39956722	     -9.64844232
      1.99000000	      5.60981038	     -3.01391640	      6.71532744	     -1.35057254	      0.95460889	     -0.59157687	     -6.59455777	      5.40120899	    -11.71322501	     -7.82692089	      9.59618901	     -1.60730207	     -2.59956598	     -3.68099723	    -13.04284838	    -16.16395155	     21.15119385	     -8.21271001	    -11.78466630	      4.39685253	     -9.65088659
      2.00000000	      5.60499662	     -3.01449801	      6.70477853	     -1.35057074	      0.95460054	     -0.59150853	     -6.58951979	      5.40369138	    -11.71135737	     -7.82361205	      9.59594773	     -1.60712962	     -2.59750827	     -3.68316027	    -13.04577570	    -16.16011558	     21.15112219	     -8.21256069	    -11.79236312	      4.39312448	     -9.65353306
      2.01000000	      5.58388022	     -3.01048242	      6.65154492	     -1.35056225	      0.95457730	     -0.59137287	     -6.56137085	      5.39561459	    -11.62272188	     -7.83319554	      9.58667708	     -1.60352330	     -2.59115928	     -3.67817226	    -13.11638097	    -16.14408657	     21.13586045	     -8.20375154	    -11.78378094	      4.37464964	     -9.61008204
      2.02000000	      5.57935818	     -3.01125075	      6.63999396	     -1.35056085	      0.95457044	     -0.59130312	     -6.55693659	      5.39815487	    -11.62288089	     -7.82979827	      9.58683901	     -1.60335007	     -2.58854643	     -3.68023598	    -13.11576140	    -16.14313980	     21.13514039	     -8.20297207	    -11.79280776	      4.37154370	     -9.61370717
      2.03000000	      5.57462885	     -3.01190877	      6.62919474	     -1.35056494	      0.95456345	     -0.59123303	     -6.55137897	      5.40040574	    -11.62054975	     -7.82808846	      9.58657821	     -1.60313072	     -2.58522639	     -3.68241651	    -13.11584215	    -16.14212830	     21.13337887	     -8.20196670	    -11.80269365	      4.36730911	     -9.61758068
      2.04000000	      5.56727204	     -3.00994245	      6.60848276	     -1.35059349	      0.95455806	     -0.59115244	     -6.53027433	      5.39726107	    -11.57638050	     -7.85097048	      9.58112081	     -1.60205825	     -2.57461138	     -3.68185542	    -13.12715837	    -16.15184639	     21.11278994	     -8.19330600	    -11.81572514	      4.36153326	     -9.62752597
      2.05000000	      5.56126212	     -3.01084477	      6.59976167	     -1.35059163	      0.95455512	     -0.59108794	     -6.52546072	      5.40022867	    -11.57667734	     -7.84584781	      9.58160734	     -1.60197884	     -2.57055632	     -3.68451774	    -13.12759153	    -16.15013015	     21.11130809	     -8.19237523	    -11.82436148	      4.35709951	     -9.62849154
      2.06000000	      5.55580475	     -3.01178959	      6.59048811	     -1.35059080	      0.95455569	     -0.59102860	     -6.52023816	      5.40292379	    -11.57536025	     -7.84209642	      9.58187612	     -1.60210260	     -2.56663541	     -3.68671225	    -13.12757166	    -16.15041730	     21.10911734	     -8.19152258	    -11.83314908	      4.35384451	     -9.63087810
      2.07000000	      5.55067370	     -3.01289482	      6.58121557	     -1.35059549	      0.95455858	     -0.59097301	     -6.51453363	      5.40530938	    -11.57280501	     -7.83904390	      9.58205757	     -1.60247914	     -2.56200043	     -3.68910547	    -13.12732092	    -16.15203711	     21.10621486	     -8.19081224	    -11.84283512	      4.35126343	     -9.63432488
      2.08000000	      5.54208285	     -3.01683279	      6.57050634	     -1.35063882	      0.95455291	     -0.59091470	     -6.49613167	      5.41045673	    -11.53189258	     -7.84997271	      9.58100887	     -1.60850524	     -2.53572466	     -3.69748238	    -13.13485146	    -16.18516504	     21.07725906	     -8.18620164	    -11.85380808	      4.35377063	     -9.64495699
      2.09000000	      5.53683701	     -3.01822931	      6.56293242	     -1.35064231	      0.95455459	     -0.59086484	     -6.49125298	      5.41252071	    -11.53363035	     -7.84412453	      9.58146494	     -1.60904898	     -2.53206788	     -3.70056392	    -13.13508564	    -16.18424225	     21.07648685	     -8.18570106	    -11.86067804	      4.35069135	     -9.64600171
      2.10000000	      5.53219408	     -3.01944876	      6.55508398	     -1.35064677	      0.95455664	     -0.59081769	     -6.48659161	      5.41476385	    -11.53480554	     -7.83929080	      9.58174581	     -1.60961596	     -2.52835242	     -3.70287581	    -13.13459206	    -16.18564019	     21.07475761	     -8.18539986	    -11.86728011	      4.34785726	     -9.64684759
      2.11000000	      5.52775599	     -3.02051930	      6.54779248	     -1.35065098	      0.95455786	     -0.59077154	     -6.48226016	      5.41655469	    -11.53562396	     -7.83502942	      9.58179744	     -1.61013798	     -2.52401572	     -3.70571161	    -13.13344607	    -16.18882043	     21.07189348	     -8.18533199	    -11.87358022	      4.34424569	     -9.64654554
      2.12000000	      5.51563647	     -3.02125958	      6.54364891	     -1.35067416	      0.95454634	     -0.59072572	     -6.47021011	      5.41849629	    -11.52905642	     -7.82828577	      9.57802569	     -1.61352569	     -2.49359507	     -3.71101680	    -13.13195045	    -16.22463025	     21.04392177	     -8.18674272	    -11.87238975	      4.33658242	     -9.62380359
